<svg version="1.0" xmlns="http://www.w3.org/2000/svg" width="301.000000pt" height="301.000000pt"
    viewBox="0 0 301.000000 301.000000" preserveAspectRatio="xMidYMid meet">
    <g transform="translate(0.000000,301.000000) scale(0.100000,-0.100000)" fill="#000000" stroke="none">
        <path d="M1426 2969 c-10 -7 -39 -9 -65 -6 -54 7 -98 -11 -179 -73 -56 -43
-86 -50 -100 -24 -8 14 -14 9 -39 -27 -42 -61 -110 -129 -129 -129 -32 0 -160
-68 -186 -99 -15 -17 -41 -36 -57 -42 -47 -17 -56 -53 -56 -229 0 -152 1 -156
29 -213 l30 -58 -29 -87 c-42 -126 -40 -194 9 -296 31 -66 37 -86 34 -134 l-3
-57 -60 -12 c-33 -7 -77 -15 -97 -18 -45 -7 -49 -26 -17 -95 12 -25 30 -76 40
-114 24 -85 53 -142 79 -156 33 -18 51 -67 70 -194 43 -278 70 -386 122 -491
17 -33 39 -85 50 -115 10 -30 36 -84 58 -120 42 -71 77 -97 193 -140 51 -19
73 -22 180 -18 116 4 127 6 227 47 58 23 170 74 250 113 125 62 154 81 207
135 98 101 144 215 164 408 6 55 14 104 19 109 4 4 24 3 44 -4 33 -10 42 -9
84 12 37 18 58 40 103 107 58 84 109 211 109 269 0 40 -32 130 -64 176 -31 46
-30 38 -12 118 24 103 48 348 41 408 -4 37 -21 82 -51 137 -24 46 -44 93 -44
106 0 13 -11 51 -25 85 -23 56 -43 87 -148 227 -17 22 -61 67 -98 100 -66 58
-84 83 -110 153 -6 18 -24 45 -40 59 -15 15 -30 37 -34 50 -4 16 -13 23 -29
23 -25 0 -76 56 -76 83 0 26 -13 27 -36 2 -24 -26 -48 -32 -59 -15 -10 17 -44
11 -105 -16 -80 -36 -110 -30 -135 24 -20 44 -28 48 -59 31z m71 -366 c-3 -5
-26 -42 -51 -83 -29 -46 -46 -66 -46 -54 0 25 75 144 90 144 6 0 9 -3 7 -7z
m41 -11 c-25 -58 -83 -147 -133 -205 -100 -116 -135 -139 -58 -39 18 24 36 55
39 69 4 15 9 20 14 13 8 -13 43 30 90 113 17 31 36 57 42 57 5 0 8 -3 6 -8z
m-217 -199 c-28 -43 -67 -109 -87 -148 -21 -38 -39 -65 -41 -58 -10 28 157
306 174 289 3 -2 -18 -39 -46 -83z m239 -50 c-67 -71 -139 -136 -159 -146
l-36 -18 30 28 c17 16 59 62 95 103 54 61 169 160 187 160 3 0 -50 -57 -117
-127z m208 55 c-54 -60 -82 -82 -164 -125 -54 -29 -103 -53 -109 -53 -24 0 87
94 141 120 33 15 87 51 120 79 32 28 63 51 68 51 5 0 -21 -33 -56 -72z m159
-214 c-3 -3 -12 -4 -19 -1 -8 3 -5 6 6 6 11 1 17 -2 13 -5z m-62 -15 c-57 -17
-242 -32 -261 -21 -13 7 4 10 66 12 47 1 105 5 130 9 25 5 56 9 70 9 23 0 22
-1 -5 -9z m-769 -75 c88 -29 161 -29 299 1 105 23 200 19 293 -10 46 -14 90
-36 104 -50 24 -23 128 -265 128 -296 0 -30 49 -117 78 -137 35 -25 62 -78 62
-120 0 -27 -3 -30 -46 -36 -104 -14 -167 -5 -364 54 -37 11 -55 9 -195 -20
-49 -10 -109 -21 -131 -24 -23 -3 -72 -20 -109 -36 -63 -28 -70 -29 -91 -15
-13 8 -37 37 -55 63 -17 26 -45 58 -63 69 -31 22 -210 73 -253 73 -21 0 -23 4
-23 51 0 69 46 292 69 337 25 48 56 76 111 101 61 26 93 26 186 -5z m89 16
c-28 -12 -45 -12 -45 0 0 6 15 10 33 9 27 0 29 -2 12 -9z m-260 -611 c60 -12
117 -39 123 -58 4 -10 0 -12 -14 -6 -68 28 -174 47 -306 55 -5 0 -8 4 -8 9 0
20 103 20 205 0z m751 -25 c36 -9 63 -18 62 -19 -7 -6 -188 20 -188 27 0 13
56 9 126 -8z m-956 -44 c0 -19 -6 -21 -65 -19 -36 1 -65 5 -65 8 0 19 30 31
77 31 47 0 53 -2 53 -20z m1700 -52 c10 -24 24 -80 30 -125 15 -98 4 -158 -41
-228 -16 -25 -42 -66 -59 -92 -16 -25 -30 -49 -30 -53 0 -4 -17 -13 -39 -20
-56 -18 -91 1 -110 60 -13 39 -12 59 8 192 23 157 43 229 68 249 20 17 113 56
136 58 12 1 24 -13 37 -41z m-700 6 c0 -8 -4 -12 -10 -9 -5 3 -10 10 -10 16 0
5 5 9 10 9 6 0 10 -7 10 -16z m-993 -33 c-28 -156 -42 -211 -56 -211 -11 0
-10 -4 5 -15 18 -13 18 -14 -5 -8 -12 3 -31 19 -41 36 -28 46 -53 150 -46 190
l6 34 71 0 c71 0 71 0 66 -26z m1350 -27 c24 -87 13 -143 -53 -272 -65 -127
-83 -146 -208 -209 -80 -40 -113 -73 -122 -119 -8 -44 -30 -44 -128 -4 -40 17
-115 42 -167 56 -51 13 -101 32 -111 40 -12 11 -41 17 -95 18 -51 2 -89 8
-111 20 -32 17 -34 16 -86 -8 -29 -14 -71 -30 -92 -35 -22 -5 -48 -12 -59 -15
-17 -5 -28 11 -81 126 -34 73 -58 137 -54 142 5 5 31 3 61 -4 54 -13 167 -8
214 10 27 10 69 90 111 208 29 85 64 66 119 -64 39 -95 69 -132 129 -160 72
-33 144 -39 256 -20 125 20 138 34 173 181 14 59 31 111 37 115 7 4 47 13 89
20 42 6 92 15 111 20 50 11 53 9 67 -46z m-757 -654 c15 -5 -1 -6 -40 -3 -36
3 -67 7 -69 9 -8 7 84 2 109 -6z m-231 -4 c-2 -2 -40 -6 -84 -9 -47 -3 -68 -2
-50 3 30 8 142 13 134 6z m376 -38 c14 -6 6 -7 -25 -3 -25 3 -49 11 -55 17
-11 11 45 2 80 -14z m-230 -28 c120 -5 222 -13 227 -18 21 -21 -4 -40 -65 -46
-79 -9 -427 12 -444 26 -14 11 -17 40 -6 52 4 4 22 5 39 1 17 -3 129 -9 249
-15z" />
        <path d="M1585 2301 c-9 -16 9 -20 23 -5 10 12 10 14 -2 14 -8 0 -17 -4 -21
-9z" />
        <path d="M1470 1594 c-89 -15 -182 -46 -188 -62 -2 -8 45 -11 175 -10 159 1
215 -4 291 -27 39 -12 24 10 -32 49 -50 34 -133 68 -160 65 -6 -1 -45 -7 -86
-15z" />
        <path d="M1140 900 c-11 -7 -1 -10 35 -10 28 0 67 -5 88 -11 49 -13 58 -5 18
15 -33 18 -118 21 -141 6z" />
    </g>
</svg>